M48
; DRILL file {KiCad 8.0.3} date 2024-10-26T21:30:25-0700
; FORMAT={-:-/ absolute / inch / decimal}
; #@! TF.CreationDate,2024-10-26T21:30:25-07:00
; #@! TF.GenerationSoftware,Kicad,Pcbnew,8.0.3
; #@! TF.FileFunction,Plated,1,2,PTH
FMAT,2
INCH
; #@! TA.AperFunction,Plated,PTH,ViaDrill
T1C0.0118
; #@! TA.AperFunction,Plated,PTH,ComponentDrill
T2C0.0374
; #@! TA.AperFunction,Plated,PTH,ComponentDrill
T3C0.0394
%
G90
G05
T1
X2.0276Y-3.1693
X2.0669Y-2.7362
X2.0866Y-2.4409
X2.2244Y-2.5787
X2.2343Y-2.9232
X2.2441Y-3.0315
X2.2933Y-2.6083
X2.3031Y-2.0276
X2.3425Y-2.2736
X2.3648Y-2.6144
X2.3976Y-2.815
X2.4606Y-3.1693
X2.4902Y-2.126
X2.5Y-3.1693
X2.5098Y-2.4606
X2.5289Y-2.7761
X2.5394Y-2.2638
X2.5394Y-3.1693
X2.5591Y-2.0276
X2.5848Y-2.4932
X2.6378Y-3.1102
X2.6575Y-2.815
X2.6772Y-2.3327
X2.6772Y-2.9134
X2.6983Y-2.1655
X2.7756Y-2.9921
X2.7953Y-2.5
X2.815Y-2.687
X2.815Y-3.1102
X2.8937Y-3.002
X2.9331Y-2.3031
X2.9921Y-2.8248
X3.0315Y-2.8839
X3.038Y-3.0251
X3.189Y-2.9134
X3.2008Y-2.8031
X3.2087Y-2.3228
X3.2087Y-2.4409
X3.2087Y-2.5591
X3.2087Y-2.6772
X3.2382Y-3.1299
X3.248Y-2.1457
X3.2874Y-3.0217
X3.3563Y-3.0217
X3.3957Y-3.1004
X3.4213Y-2.437
X3.4252Y-2.7165
X3.4646Y-2.5591
X3.5138Y-3.0217
X3.5236Y-2.7461
X3.5827Y-3.1102
X3.6024Y-2.9921
X3.7992Y-2.2933
X3.7992Y-3.0118
X3.8386Y-2.2441
X3.8386Y-2.6417
X3.878Y-3.1004
X3.9055Y-2.6142
X3.9469Y-2.4311
X3.9606Y-2.3386
X4.0157Y-2.6476
X4.0354Y-2.2323
X4.0453Y-3.1004
X4.0915Y-2.6079
X4.1339Y-2.1949
X4.1339Y-2.7165
X4.1929Y-3.1693
X4.2913Y-2.5591
X4.2913Y-3.0709
X4.311Y-2.1063
X4.3307Y-2.0276
X4.3307Y-2.2441
X4.4094Y-2.8937
X4.4291Y-2.5984
X4.4724Y-2.4134
X4.4843Y-2.4606
X4.4961Y-2.3819
X4.5472Y-2.7559
X4.5591Y-2.5984
T2
X2.4016Y-3.0512
X2.5Y-3.0512
X2.5984Y-3.0512
X2.6969Y-3.0512
T3
X2.6543Y-2.1063
X2.7543Y-2.1063
X2.8543Y-2.1063
X2.9543Y-2.1063
X3.5138Y-2.8839
X3.5138Y-3.1398
X3.6909Y-2.8839
X3.6909Y-3.1398
X3.8091Y-2.8839
X3.8091Y-3.1398
X3.9862Y-2.8839
X3.9862Y-3.1398
X4.1043Y-2.8839
X4.1043Y-3.1398
X4.2815Y-2.8839
X4.2815Y-3.1398
M30
