%TF.GenerationSoftware,KiCad,Pcbnew,8.0.3*%
%TF.CreationDate,2024-10-26T21:30:25-07:00*%
%TF.ProjectId,oled_controller,6f6c6564-5f63-46f6-9e74-726f6c6c6572,rev?*%
%TF.SameCoordinates,Original*%
%TF.FileFunction,Soldermask,Top*%
%TF.FilePolarity,Negative*%
%FSLAX46Y46*%
G04 Gerber Fmt 4.6, Leading zero omitted, Abs format (unit mm)*
G04 Created by KiCad (PCBNEW 8.0.3) date 2024-10-26 21:30:25*
%MOMM*%
%LPD*%
G01*
G04 APERTURE LIST*
G04 Aperture macros list*
%AMRoundRect*
0 Rectangle with rounded corners*
0 $1 Rounding radius*
0 $2 $3 $4 $5 $6 $7 $8 $9 X,Y pos of 4 corners*
0 Add a 4 corners polygon primitive as box body*
4,1,4,$2,$3,$4,$5,$6,$7,$8,$9,$2,$3,0*
0 Add four circle primitives for the rounded corners*
1,1,$1+$1,$2,$3*
1,1,$1+$1,$4,$5*
1,1,$1+$1,$6,$7*
1,1,$1+$1,$8,$9*
0 Add four rect primitives between the rounded corners*
20,1,$1+$1,$2,$3,$4,$5,0*
20,1,$1+$1,$4,$5,$6,$7,0*
20,1,$1+$1,$6,$7,$8,$9,0*
20,1,$1+$1,$8,$9,$2,$3,0*%
G04 Aperture macros list end*
%ADD10C,1.000000*%
%ADD11R,2.000000X1.500000*%
%ADD12RoundRect,0.250000X0.450000X-0.350000X0.450000X0.350000X-0.450000X0.350000X-0.450000X-0.350000X0*%
%ADD13C,3.200000*%
%ADD14RoundRect,0.250000X-0.350000X-0.450000X0.350000X-0.450000X0.350000X0.450000X-0.350000X0.450000X0*%
%ADD15RoundRect,0.102000X0.775000X-0.300000X0.775000X0.300000X-0.775000X0.300000X-0.775000X-0.300000X0*%
%ADD16RoundRect,0.102000X0.900000X-0.600000X0.900000X0.600000X-0.900000X0.600000X-0.900000X-0.600000X0*%
%ADD17RoundRect,0.102000X-0.754000X0.754000X-0.754000X-0.754000X0.754000X-0.754000X0.754000X0.754000X0*%
%ADD18C,1.712000*%
%ADD19RoundRect,0.250000X-0.450000X0.350000X-0.450000X-0.350000X0.450000X-0.350000X0.450000X0.350000X0*%
%ADD20R,1.500000X1.100000*%
%ADD21R,1.750000X0.450000*%
%ADD22RoundRect,0.102000X-0.775000X0.300000X-0.775000X-0.300000X0.775000X-0.300000X0.775000X0.300000X0*%
%ADD23RoundRect,0.102000X-0.900000X0.600000X-0.900000X-0.600000X0.900000X-0.600000X0.900000X0.600000X0*%
%ADD24R,1.700000X1.700000*%
%ADD25O,1.700000X1.700000*%
%ADD26RoundRect,0.250000X0.350000X0.450000X-0.350000X0.450000X-0.350000X-0.450000X0.350000X-0.450000X0*%
%ADD27RoundRect,0.250000X0.600000X0.725000X-0.600000X0.725000X-0.600000X-0.725000X0.600000X-0.725000X0*%
%ADD28O,1.700000X1.950000*%
G04 APERTURE END LIST*
D10*
%TO.C,S1*%
X97000000Y-65250000D03*
X101500000Y-65250000D03*
D11*
X92950000Y-59750000D03*
X92950000Y-63450000D03*
X92950000Y-66250000D03*
X105550000Y-66250000D03*
X105550000Y-63450000D03*
X105550000Y-59750000D03*
%TD*%
D12*
%TO.C,R13*%
X70500000Y-74000000D03*
X70500000Y-72000000D03*
%TD*%
D13*
%TO.C,H4*%
X113500000Y-77500000D03*
%TD*%
D14*
%TO.C,R11*%
X61500000Y-67000000D03*
X63500000Y-67000000D03*
%TD*%
D15*
%TO.C,J3*%
X112000000Y-63500000D03*
X112000000Y-62500000D03*
X112000000Y-61500000D03*
X112000000Y-60500000D03*
D16*
X115875000Y-64800000D03*
X115875000Y-59200000D03*
%TD*%
D14*
%TO.C,R9*%
X61500000Y-61000000D03*
X63500000Y-61000000D03*
%TD*%
D17*
%TO.C,B1*%
X93750000Y-73250000D03*
D18*
X93750000Y-79750000D03*
X89250000Y-73250000D03*
X89250000Y-79750000D03*
%TD*%
D19*
%TO.C,R1*%
X78500000Y-78000000D03*
X78500000Y-80000000D03*
%TD*%
D12*
%TO.C,R12*%
X72500000Y-74000000D03*
X72500000Y-72000000D03*
%TD*%
D20*
%TO.C,D1*%
X101000000Y-52500000D03*
X104000000Y-52500000D03*
X104000000Y-54000000D03*
X101000000Y-54000000D03*
%TD*%
D21*
%TO.C,U2*%
X75100000Y-69575000D03*
X75100000Y-68925000D03*
X75100000Y-68275000D03*
X75100000Y-67625000D03*
X75100000Y-66975000D03*
X75100000Y-66325000D03*
X75100000Y-65675000D03*
X75100000Y-65025000D03*
X75100000Y-64375000D03*
X75100000Y-63725000D03*
X75100000Y-63075000D03*
X75100000Y-62425000D03*
X67900000Y-62425000D03*
X67900000Y-63075000D03*
X67900000Y-63725000D03*
X67900000Y-64375000D03*
X67900000Y-65025000D03*
X67900000Y-65675000D03*
X67900000Y-66325000D03*
X67900000Y-66975000D03*
X67900000Y-67625000D03*
X67900000Y-68275000D03*
X67900000Y-68925000D03*
X67900000Y-69575000D03*
%TD*%
D19*
%TO.C,R8*%
X73500000Y-78000000D03*
X73500000Y-80000000D03*
%TD*%
D17*
%TO.C,B2*%
X101250000Y-73250000D03*
D18*
X101250000Y-79750000D03*
X96750000Y-73250000D03*
X96750000Y-79750000D03*
%TD*%
D12*
%TO.C,R7*%
X76000000Y-80000000D03*
X76000000Y-78000000D03*
%TD*%
D14*
%TO.C,R3*%
X83000000Y-65000000D03*
X85000000Y-65000000D03*
%TD*%
%TO.C,R4*%
X83000000Y-68500000D03*
X85000000Y-68500000D03*
%TD*%
D22*
%TO.C,J8*%
X56000000Y-68500000D03*
X56000000Y-69500000D03*
X56000000Y-70500000D03*
X56000000Y-71500000D03*
D23*
X52125000Y-67200000D03*
X52125000Y-72800000D03*
%TD*%
D13*
%TO.C,H2*%
X113500000Y-54500000D03*
%TD*%
D15*
%TO.C,J4*%
X112000000Y-71500000D03*
X112000000Y-70500000D03*
X112000000Y-69500000D03*
X112000000Y-68500000D03*
D16*
X115875000Y-72800000D03*
X115875000Y-67200000D03*
%TD*%
D24*
%TO.C,J7*%
X67420000Y-53500000D03*
D25*
X69960000Y-53500000D03*
X72500000Y-53500000D03*
X75040000Y-53500000D03*
%TD*%
D26*
%TO.C,R6*%
X85000000Y-72000000D03*
X83000000Y-72000000D03*
%TD*%
D14*
%TO.C,R10*%
X61500000Y-64000000D03*
X63500000Y-64000000D03*
%TD*%
D13*
%TO.C,H1*%
X54250000Y-54500000D03*
%TD*%
D14*
%TO.C,R2*%
X83000000Y-62000000D03*
X85000000Y-62000000D03*
%TD*%
D17*
%TO.C,B3*%
X108750000Y-73250000D03*
D18*
X108750000Y-79750000D03*
X104250000Y-73250000D03*
X104250000Y-79750000D03*
%TD*%
D22*
%TO.C,J1*%
X56000000Y-60500000D03*
X56000000Y-61500000D03*
X56000000Y-62500000D03*
X56000000Y-63500000D03*
D23*
X52125000Y-59200000D03*
X52125000Y-64800000D03*
%TD*%
D13*
%TO.C,H3*%
X54250000Y-77500000D03*
%TD*%
D26*
%TO.C,R5*%
X85000000Y-59000000D03*
X83000000Y-59000000D03*
%TD*%
D27*
%TO.C,J2*%
X68500000Y-77500000D03*
D28*
X66000000Y-77500000D03*
X63500000Y-77500000D03*
X61000000Y-77500000D03*
%TD*%
M02*
